<?xml version="1.0" encoding="utf-8"?>
<!-- Generator: Adobe Illustrator 25.4.1, SVG Export Plug-In . SVG Version: 6.00 Build 0)  -->
<svg version="1.1" id="Capa_1" xmlns="http://www.w3.org/2000/svg" xmlns:xlink="http://www.w3.org/1999/xlink" x="0px" y="0px"
	 viewBox="0 0 1224.3 1224.3" style="enable-background:new 0 0 1224.3 1224.3;" xml:space="preserve">
<style type="text/css">
	.st0{fill:#55AC82;}
	.st1{fill:#FFFFFF;}
</style>
<circle class="st0" cx="612.2" cy="612.2" r="600"/>
<g>
	<path class="st1" d="M612.2,743.8c9.7,0,17.5-7.8,17.5-17.5v-247l88.1,88.1c3.4,3.4,7.9,5.1,12.4,5.1s9-1.7,12.4-5.1
		c6.8-6.8,6.8-17.9,0-24.7l-118-118c-6.6-6.6-18.2-6.6-24.7,0l-118,118c-6.8,6.8-6.8,17.9,0,24.7c6.8,6.8,17.9,6.8,24.7,0l88.1-88.1
		v247C594.7,736,602.5,743.8,612.2,743.8z"/>
	<path class="st1" d="M446,648.1c-9.7,0-17.5,7.8-17.5,17.5V787c0,9.7,7.8,17.5,17.5,17.5h332.2c9.7,0,17.5-7.8,17.5-17.5V665.6
		c0-9.7-7.8-17.5-17.5-17.5s-17.5,7.8-17.5,17.5l0,104H463.5v-104C463.5,655.9,455.7,648.1,446,648.1L446,648.1z"/>
</g>
</svg>
